<svg width="20" height="20" viewBox="0 0 20 20" fill="none" xmlns="http://www.w3.org/2000/svg">
<path fill-rule="evenodd" clip-rule="evenodd" d="M6.66668 0.833344C7.12691 0.833344 7.50001 1.20644 7.50001 1.66668V2.49998H12.5V1.66668C12.5 1.20644 12.8731 0.833344 13.3333 0.833344C13.7936 0.833344 14.1667 1.20644 14.1667 1.66668V2.49998H15.8333C17.214 2.49998 18.3333 3.61927 18.3333 4.99998V16.6666C18.3333 18.0474 17.214 19.1666 15.8333 19.1666H4.16666C2.78595 19.1666 1.66666 18.0474 1.66666 16.6666V4.99998C1.66666 3.61927 2.78595 2.49998 4.16666 2.49998H5.83334V1.66668C5.83334 1.20644 6.20644 0.833344 6.66668 0.833344ZM5.83334 4.16665H4.16666C3.70643 4.16665 3.33333 4.53975 3.33333 4.99998V7.49998H16.6667V4.99998C16.6667 4.53975 16.2936 4.16665 15.8333 4.16665H14.1667V5.00001C14.1667 5.46025 13.7936 5.83334 13.3333 5.83334C12.8731 5.83334 12.5 5.46025 12.5 5.00001V4.16665H7.50001V5.00001C7.50001 5.46025 7.12691 5.83334 6.66668 5.83334C6.20644 5.83334 5.83334 5.46025 5.83334 5.00001V4.16665ZM16.6667 9.16665H3.33333V16.6666C3.33333 17.1269 3.70643 17.5 4.16666 17.5H15.8333C16.2936 17.5 16.6667 17.1269 16.6667 16.6666V9.16665Z" fill="#B3B3B3"/>
</svg>
