<svg width="20" height="20" viewBox="0 0 20 20" fill="none" xmlns="http://www.w3.org/2000/svg">
<g clip-path="url(#clip0_12_282)">
<path fill-rule="evenodd" clip-rule="evenodd" d="M10 2.50001C5.85787 2.50001 2.50001 5.85787 2.50001 10C2.50001 14.1421 5.85787 17.5 10 17.5C14.1421 17.5 17.5 14.1421 17.5 10C17.5 5.85787 14.1421 2.50001 10 2.50001ZM0.833344 10C0.833344 4.9374 4.9374 0.833344 10 0.833344C15.0626 0.833344 19.1667 4.9374 19.1667 10C19.1667 15.0626 15.0626 19.1667 10 19.1667C4.9374 19.1667 0.833344 15.0626 0.833344 10ZM10 4.16666C10.4602 4.16666 10.8333 4.53976 10.8333 5V9.48497L13.706 10.9213C14.1177 11.1271 14.2845 11.6277 14.0787 12.0393C13.8729 12.451 13.3723 12.6178 12.9607 12.412L9.62732 10.7454C9.345 10.6042 9.16666 10.3156 9.16666 10V5C9.16666 4.53976 9.53976 4.16666 10 4.16666Z" fill="#B3B3B3"/>
</g>
<defs>
<clipPath id="clip0_12_282">
<rect width="20" height="20" fill="white"/>
</clipPath>
</defs>
</svg>
