<svg width="40" height="40" viewBox="0 0 40 40" fill="none" xmlns="http://www.w3.org/2000/svg">
<rect width="40" height="40" fill="#FAE500"/>
<path d="M20.2405 10C14.0181 10 9 14.0144 9 18.888C9 22.0514 11.0875 24.8213 14.2188 26.403L13.159 30.3613C13.139 30.4207 13.1359 30.4843 13.1501 30.5453C13.1643 30.6063 13.1952 30.6621 13.2393 30.7065C13.3036 30.7633 13.3864 30.7946 13.4721 30.7948C13.5432 30.7891 13.6107 30.761 13.6648 30.7146L18.2252 27.6395C18.8984 27.7324 19.577 27.7807 20.2566 27.784C26.4709 27.784 31.4971 23.7696 31.4971 18.888C31.4971 14.0064 26.4549 10 20.2405 10Z" fill="#392020"/>
<path d="M12.9339 17.4829H11.7054C11.5532 17.4873 11.4028 17.4483 11.2719 17.3705C11.2137 17.3341 11.1638 17.286 11.1251 17.2293C11.0864 17.1727 11.0598 17.1087 11.0471 17.0413C11.0432 16.9985 11.0432 16.9556 11.0471 16.9129C11.0432 16.8329 11.0588 16.7532 11.0923 16.6805C11.1258 16.6078 11.1764 16.5443 11.2397 16.4953C11.3797 16.394 11.5487 16.3404 11.7215 16.3427H15.4228C15.5763 16.3374 15.7277 16.3794 15.8564 16.4632C15.9159 16.498 15.9669 16.5456 16.0058 16.6026C16.0447 16.6595 16.0704 16.7243 16.0812 16.7924C16.0851 16.8325 16.0851 16.8728 16.0812 16.9129C16.085 16.994 16.0695 17.0748 16.036 17.1488C16.0025 17.2227 15.952 17.2877 15.8885 17.3383C15.7519 17.4396 15.5846 17.4907 15.4148 17.4829H14.2265V21.7061C14.2313 21.7961 14.2174 21.886 14.1856 21.9703C14.1538 22.0547 14.1049 22.1315 14.0418 22.1959C13.9814 22.2574 13.9087 22.3057 13.8285 22.3375C13.7483 22.3693 13.6624 22.3839 13.5762 22.3805C13.4254 22.3848 13.2778 22.3366 13.1587 22.2441C13.0452 22.1537 12.9683 22.0253 12.9419 21.8827C12.9339 21.8241 12.9339 21.7647 12.9419 21.7061L12.9339 17.4829Z" fill="#FEE500"/>
<path d="M16.4356 16.6559C16.4709 16.5238 16.5538 16.4094 16.6684 16.3347C16.7905 16.2655 16.9296 16.2321 17.0698 16.2384H17.3749C17.5237 16.233 17.671 16.2692 17.8005 16.3428C17.9376 16.435 18.0351 16.5754 18.0735 16.7362L19.6792 21.2725C19.7209 21.3909 19.7557 21.5116 19.7836 21.6339C19.7864 21.6847 19.7864 21.7356 19.7836 21.7864C19.7863 21.8647 19.7719 21.9425 19.7414 22.0147C19.7109 22.0868 19.665 22.1514 19.607 22.2039C19.5507 22.2616 19.4832 22.307 19.4086 22.3374C19.334 22.3678 19.2539 22.3825 19.1734 22.3805C19.0496 22.3928 18.9252 22.3631 18.8203 22.2961C18.7155 22.2291 18.6362 22.1288 18.5953 22.0112L18.2581 21.0237H16.1465L15.8093 22.0112C15.7694 22.1311 15.6892 22.2334 15.5823 22.3008C15.4755 22.3681 15.3485 22.3963 15.2232 22.3805C15.0874 22.3841 14.9544 22.3416 14.8458 22.2601C14.74 22.1759 14.6686 22.0561 14.6451 21.9229C14.6408 21.8775 14.6408 21.8318 14.6451 21.7864C14.6313 21.7067 14.6313 21.6253 14.6451 21.5456C14.6451 21.4573 14.7013 21.3609 14.7334 21.2725L16.4356 16.6559ZM17.2385 17.7077L16.4757 20.1164H17.9932L17.2385 17.7077Z" fill="#FEE500"/>
<path d="M19.9675 16.913C19.9593 16.7328 20.0228 16.5567 20.1441 16.4232C20.2058 16.361 20.2798 16.3124 20.3614 16.2806C20.443 16.2488 20.5304 16.2344 20.6178 16.2385C20.7682 16.2367 20.915 16.2847 21.0353 16.375C21.1469 16.4692 21.2209 16.6002 21.2441 16.7443C21.252 16.8002 21.252 16.857 21.2441 16.913V21.1362H23.452C23.6051 21.1342 23.7555 21.1759 23.8856 21.2565C23.9441 21.2926 23.9943 21.3406 24.033 21.3973C24.0718 21.454 24.0981 21.5182 24.1104 21.5858C24.1104 21.5858 24.1104 21.6661 24.1104 21.7062C24.1142 21.7862 24.0987 21.8658 24.0652 21.9385C24.0316 22.0112 23.981 22.0748 23.9177 22.1237C23.7778 22.2251 23.6088 22.2786 23.436 22.2762H20.7222C20.5494 22.2874 20.3776 22.2424 20.2324 22.1478C20.1026 22.0508 20.0161 21.9066 19.9916 21.7464C19.9857 21.6582 19.9857 21.5696 19.9916 21.4814L19.9675 16.913Z" fill="#FEE500"/>
<path d="M24.2551 16.913C24.2503 16.7333 24.3134 16.5585 24.4317 16.4232C24.5521 16.3139 24.7064 16.2493 24.8688 16.2406C25.0311 16.2318 25.1915 16.2793 25.323 16.375C25.4369 16.4684 25.5138 16.5993 25.5397 16.7443C25.5437 16.8005 25.5437 16.8569 25.5397 16.913V18.8801L27.5711 16.5356C27.6493 16.4556 27.7324 16.3806 27.82 16.3108C27.9024 16.2617 27.997 16.2366 28.0929 16.2385C28.2333 16.2377 28.3705 16.2798 28.4864 16.359C28.5409 16.3957 28.5876 16.4431 28.6234 16.4983C28.6593 16.5535 28.6837 16.6153 28.6951 16.6801C28.6984 16.696 28.6984 16.7125 28.6951 16.7284C28.6912 16.7469 28.6912 16.766 28.6951 16.7845C28.6948 16.869 28.6727 16.952 28.6309 17.0254C28.5883 17.1031 28.5371 17.1758 28.4783 17.2421L27.1455 18.7034L28.7513 21.1924V21.2727C28.8347 21.3877 28.8997 21.5151 28.944 21.6501V21.6902C28.9533 21.7832 28.9399 21.8771 28.9049 21.9638C28.87 22.0505 28.8145 22.1274 28.7433 22.188C28.6093 22.2892 28.4455 22.3429 28.2776 22.3406C28.1661 22.3452 28.0553 22.3202 27.9564 22.2682C27.8495 22.1965 27.7614 22.1002 27.6995 21.9872L26.2061 19.5786L25.4916 20.3253V21.6661C25.4964 21.8457 25.4333 22.0206 25.3149 22.1558C25.2515 22.2178 25.176 22.2663 25.0932 22.298C25.0103 22.3298 24.9218 22.3443 24.8332 22.3406C24.685 22.3437 24.5404 22.2954 24.4237 22.204C24.3103 22.1136 24.2333 21.9854 24.2069 21.8428C24.199 21.7842 24.199 21.7247 24.2069 21.6661L24.2551 16.913Z" fill="#FEE500"/>
</svg>
