<svg width="20" height="20" viewBox="0 0 20 20" fill="none" xmlns="http://www.w3.org/2000/svg">
<g clip-path="url(#clip0_118_9)">
<path fill-rule="evenodd" clip-rule="evenodd" d="M7.50001 3.33334C6.1193 3.33334 5.00001 4.45263 5.00001 5.83334C5.00001 7.21405 6.1193 8.33334 7.50001 8.33334C8.88073 8.33334 10 7.21405 10 5.83334C10 4.45263 8.88073 3.33334 7.50001 3.33334ZM3.33334 5.83334C3.33334 3.53215 5.19883 1.66667 7.50001 1.66667C9.8012 1.66667 11.6667 3.53215 11.6667 5.83334C11.6667 8.13453 9.8012 10 7.50001 10C5.19883 10 3.33334 8.13453 3.33334 5.83334ZM12.526 2.40167C12.6402 1.95581 13.0942 1.68692 13.54 1.80107C14.4363 2.03055 15.2307 2.5518 15.798 3.28265C16.3653 4.01349 16.6732 4.91236 16.6732 5.83753C16.6732 6.76271 16.3653 7.66157 15.798 8.39242C15.2307 9.12326 14.4363 9.64451 13.54 9.87399C13.0942 9.98815 12.6402 9.71925 12.526 9.2734C12.4119 8.82754 12.6808 8.37356 13.1266 8.25941C13.6644 8.12172 14.141 7.80897 14.4814 7.37046C14.8218 6.93196 15.0065 6.39264 15.0065 5.83753C15.0065 5.28243 14.8218 4.74311 14.4814 4.3046C14.141 3.8661 13.6644 3.55335 13.1266 3.41566C12.6808 3.3015 12.4119 2.84752 12.526 2.40167ZM1.22037 12.8871C2.00177 12.1057 3.06158 11.6667 4.16665 11.6667H10.8333C11.9384 11.6667 12.9982 12.1057 13.7796 12.8871C14.561 13.6685 15 14.7283 15 15.8333V17.5C15 17.9602 14.6269 18.3333 14.1667 18.3333C13.7064 18.3333 13.3333 17.9602 13.3333 17.5V15.8333C13.3333 15.1703 13.0699 14.5344 12.6011 14.0656C12.1322 13.5967 11.4964 13.3333 10.8333 13.3333H4.16665C3.50361 13.3333 2.86773 13.5967 2.39888 14.0656C1.93004 14.5344 1.66665 15.1703 1.66665 15.8333V17.5C1.66665 17.9602 1.29356 18.3333 0.833318 18.3333C0.373081 18.3333 -1.52588e-05 17.9602 -1.52588e-05 17.5V15.8333C-1.52588e-05 14.7283 0.438972 13.6685 1.22037 12.8871ZM15.8598 12.4C15.9749 11.9544 16.4294 11.6864 16.875 11.8015C17.7689 12.0323 18.5608 12.5534 19.1264 13.2831C19.692 14.0127 19.9993 14.9095 20 15.8327V17.5C20 17.9603 19.6269 18.3334 19.1667 18.3334C18.7064 18.3334 18.3333 17.9603 18.3333 17.5V15.834C18.3329 15.2801 18.1486 14.742 17.8092 14.3042C17.4698 13.8664 16.9947 13.5537 16.4583 13.4152C16.0127 13.3002 15.7447 12.8457 15.8598 12.4Z" fill="#B3B3B3"/>
</g>
<defs>
<clipPath id="clip0_118_9">
<rect width="20" height="20" fill="white"/>
</clipPath>
</defs>
</svg>
